STARTFONT 2.1
COMMENT
COMMENT Converted from OpenType font "small_5x3.ttf" by "otf2bdf 3.0".
COMMENT
FONT -FreeType-Small 5x3-Medium-R-Normal--5-50-72-72-P-26-ISO10646-1
SIZE 5 72 72
FONTBOUNDINGBOX 5 6 -1 -1
STARTPROPERTIES 19
FOUNDRY "FreeType"
FAMILY_NAME "Small 5x3"
WEIGHT_NAME "Medium"
SLANT "R"
SETWIDTH_NAME "Normal"
ADD_STYLE_NAME ""
PIXEL_SIZE 5
POINT_SIZE 50
RESOLUTION_X 72
RESOLUTION_Y 72
SPACING "P"
AVERAGE_WIDTH 26
CHARSET_REGISTRY "ISO10646"
CHARSET_ENCODING "1"
FONT_ASCENT 3
FONT_DESCENT 0
COPYRIGHT "Copyright soxhead2000 2010"
_OTF_FONTFILE "small_5x3.ttf"
_OTF_PSNAME "Small-5x3"
ENDPROPERTIES
CHARS 359
STARTCHAR 0000
ENCODING 0
SWIDTH 0 0
DWIDTH 0 0
BBX 0 0 0 0
BITMAP
ENDCHAR
STARTCHAR 000D
ENCODING 13
SWIDTH 0 0
DWIDTH 0 0
BBX 0 0 0 0
BITMAP
ENDCHAR
STARTCHAR 0020
ENCODING 32
SWIDTH 600 0
DWIDTH 3 0
BBX 0 0 0 0
BITMAP
ENDCHAR
STARTCHAR 0021
ENCODING 33
SWIDTH 400 0
DWIDTH 2 0
BBX 1 4 0 0
BITMAP
80
80
00
80
ENDCHAR
STARTCHAR 0022
ENCODING 34
SWIDTH 600 0
DWIDTH 3 0
BBX 2 2 0 2
BITMAP
C0
C0
ENDCHAR
STARTCHAR 0023
ENCODING 35
SWIDTH 600 0
DWIDTH 3 0
BBX 2 4 0 0
BITMAP
C0
C0
C0
C0
ENDCHAR
STARTCHAR 0024
ENCODING 36
SWIDTH 600 0
DWIDTH 3 0
BBX 2 4 0 0
BITMAP
C0
80
40
C0
ENDCHAR
STARTCHAR 0025
ENCODING 37
SWIDTH 600 0
DWIDTH 3 0
BBX 2 4 0 0
BITMAP
80
40
80
40
ENDCHAR
STARTCHAR 0026
ENCODING 38
SWIDTH 600 0
DWIDTH 3 0
BBX 2 4 0 0
BITMAP
80
C0
C0
80
ENDCHAR
STARTCHAR 0027
ENCODING 39
SWIDTH 400 0
DWIDTH 2 0
BBX 1 2 0 2
BITMAP
80
80
ENDCHAR
STARTCHAR 0028
ENCODING 40
SWIDTH 400 0
DWIDTH 2 0
BBX 2 4 0 0
BITMAP
40
80
80
40
ENDCHAR
STARTCHAR 0029
ENCODING 41
SWIDTH 400 0
DWIDTH 2 0
BBX 2 4 -1 0
BITMAP
80
40
40
80
ENDCHAR
STARTCHAR 002A
ENCODING 42
SWIDTH 600 0
DWIDTH 3 0
BBX 2 1 0 2
BITMAP
C0
ENDCHAR
STARTCHAR 002B
ENCODING 43
SWIDTH 600 0
DWIDTH 3 0
BBX 2 2 0 1
BITMAP
80
C0
ENDCHAR
STARTCHAR 002C
ENCODING 44
SWIDTH 400 0
DWIDTH 2 0
BBX 1 2 0 0
BITMAP
80
80
ENDCHAR
STARTCHAR 002D
ENCODING 45
SWIDTH 600 0
DWIDTH 3 0
BBX 2 1 0 1
BITMAP
C0
ENDCHAR
STARTCHAR 002E
ENCODING 46
SWIDTH 200 0
DWIDTH 1 0
BBX 1 1 0 0
BITMAP
80
ENDCHAR
STARTCHAR 002F
ENCODING 47
SWIDTH 600 0
DWIDTH 3 0
BBX 2 2 0 1
BITMAP
40
80
ENDCHAR
STARTCHAR 0030
ENCODING 48
SWIDTH 600 0
DWIDTH 3 0
BBX 2 4 0 0
BITMAP
C0
C0
C0
C0
ENDCHAR
STARTCHAR 0031
ENCODING 49
SWIDTH 600 0
DWIDTH 3 0
BBX 3 4 -1 0
BITMAP
C0
40
40
E0
ENDCHAR
STARTCHAR 0032
ENCODING 50
SWIDTH 600 0
DWIDTH 3 0
BBX 2 4 0 0
BITMAP
C0
40
C0
C0
ENDCHAR
STARTCHAR 0033
ENCODING 51
SWIDTH 600 0
DWIDTH 3 0
BBX 2 4 0 0
BITMAP
C0
40
C0
C0
ENDCHAR
STARTCHAR 0034
ENCODING 52
SWIDTH 600 0
DWIDTH 3 0
BBX 2 4 0 0
BITMAP
C0
C0
C0
40
ENDCHAR
STARTCHAR 0035
ENCODING 53
SWIDTH 600 0
DWIDTH 3 0
BBX 2 4 0 0
BITMAP
C0
80
C0
C0
ENDCHAR
STARTCHAR 0036
ENCODING 54
SWIDTH 600 0
DWIDTH 3 0
BBX 2 4 0 0
BITMAP
C0
80
C0
C0
ENDCHAR
STARTCHAR 0037
ENCODING 55
SWIDTH 600 0
DWIDTH 3 0
BBX 2 4 0 0
BITMAP
C0
40
40
40
ENDCHAR
STARTCHAR 0038
ENCODING 56
SWIDTH 600 0
DWIDTH 3 0
BBX 2 4 0 0
BITMAP
C0
C0
C0
C0
ENDCHAR
STARTCHAR 0039
ENCODING 57
SWIDTH 600 0
DWIDTH 3 0
BBX 2 4 0 0
BITMAP
C0
C0
C0
C0
ENDCHAR
STARTCHAR 003A
ENCODING 58
SWIDTH 200 0
DWIDTH 1 0
BBX 1 2 0 1
BITMAP
80
80
ENDCHAR
STARTCHAR 003B
ENCODING 59
SWIDTH 400 0
DWIDTH 2 0
BBX 1 3 0 0
BITMAP
80
80
80
ENDCHAR
STARTCHAR 003C
ENCODING 60
SWIDTH 600 0
DWIDTH 3 0
BBX 2 4 0 0
BITMAP
40
00
80
40
ENDCHAR
STARTCHAR 003D
ENCODING 61
SWIDTH 600 0
DWIDTH 3 0
BBX 2 2 0 1
BITMAP
C0
C0
ENDCHAR
STARTCHAR 003E
ENCODING 62
SWIDTH 600 0
DWIDTH 3 0
BBX 2 4 0 0
BITMAP
80
00
40
80
ENDCHAR
STARTCHAR 003F
ENCODING 63
SWIDTH 600 0
DWIDTH 3 0
BBX 2 3 0 0
BITMAP
C0
40
40
ENDCHAR
STARTCHAR 0040
ENCODING 64
SWIDTH 600 0
DWIDTH 3 0
BBX 2 4 0 0
BITMAP
C0
C0
80
C0
ENDCHAR
STARTCHAR 0041
ENCODING 65
SWIDTH 600 0
DWIDTH 3 0
BBX 2 4 0 0
BITMAP
C0
C0
C0
C0
ENDCHAR
STARTCHAR 0042
ENCODING 66
SWIDTH 600 0
DWIDTH 3 0
BBX 2 4 0 0
BITMAP
C0
C0
C0
C0
ENDCHAR
STARTCHAR 0043
ENCODING 67
SWIDTH 600 0
DWIDTH 3 0
BBX 2 4 0 0
BITMAP
C0
80
80
C0
ENDCHAR
STARTCHAR 0044
ENCODING 68
SWIDTH 600 0
DWIDTH 3 0
BBX 2 4 0 0
BITMAP
80
C0
C0
80
ENDCHAR
STARTCHAR 0045
ENCODING 69
SWIDTH 600 0
DWIDTH 3 0
BBX 2 4 0 0
BITMAP
C0
80
C0
C0
ENDCHAR
STARTCHAR 0046
ENCODING 70
SWIDTH 600 0
DWIDTH 3 0
BBX 2 4 0 0
BITMAP
C0
80
C0
80
ENDCHAR
STARTCHAR 0047
ENCODING 71
SWIDTH 600 0
DWIDTH 3 0
BBX 2 4 0 0
BITMAP
C0
80
C0
C0
ENDCHAR
STARTCHAR 0048
ENCODING 72
SWIDTH 600 0
DWIDTH 3 0
BBX 2 4 0 0
BITMAP
C0
C0
C0
C0
ENDCHAR
STARTCHAR 0049
ENCODING 73
SWIDTH 400 0
DWIDTH 2 0
BBX 3 4 -1 0
BITMAP
E0
40
40
E0
ENDCHAR
STARTCHAR 004A
ENCODING 74
SWIDTH 600 0
DWIDTH 3 0
BBX 2 4 0 0
BITMAP
40
40
C0
C0
ENDCHAR
STARTCHAR 004B
ENCODING 75
SWIDTH 600 0
DWIDTH 3 0
BBX 2 4 0 0
BITMAP
C0
C0
C0
C0
ENDCHAR
STARTCHAR 004C
ENCODING 76
SWIDTH 600 0
DWIDTH 3 0
BBX 2 4 0 0
BITMAP
80
80
80
C0
ENDCHAR
STARTCHAR 004D
ENCODING 77
SWIDTH 800 0
DWIDTH 4 0
BBX 3 4 0 0
BITMAP
E0
E0
E0
E0
ENDCHAR
STARTCHAR 004E
ENCODING 78
SWIDTH 600 0
DWIDTH 3 0
BBX 2 4 0 0
BITMAP
C0
C0
C0
C0
ENDCHAR
STARTCHAR 004F
ENCODING 79
SWIDTH 600 0
DWIDTH 3 0
BBX 2 4 0 0
BITMAP
C0
C0
C0
C0
ENDCHAR
STARTCHAR 0050
ENCODING 80
SWIDTH 600 0
DWIDTH 3 0
BBX 2 4 0 0
BITMAP
C0
C0
C0
80
ENDCHAR
STARTCHAR 0051
ENCODING 81
SWIDTH 600 0
DWIDTH 3 0
BBX 2 4 0 -1
BITMAP
C0
C0
C0
C0
ENDCHAR
STARTCHAR 0052
ENCODING 82
SWIDTH 600 0
DWIDTH 3 0
BBX 2 4 0 0
BITMAP
C0
C0
C0
C0
ENDCHAR
STARTCHAR 0053
ENCODING 83
SWIDTH 600 0
DWIDTH 3 0
BBX 2 4 0 0
BITMAP
C0
80
C0
C0
ENDCHAR
STARTCHAR 0054
ENCODING 84
SWIDTH 400 0
DWIDTH 2 0
BBX 3 4 -1 0
BITMAP
E0
40
40
40
ENDCHAR
STARTCHAR 0055
ENCODING 85
SWIDTH 600 0
DWIDTH 3 0
BBX 2 4 0 0
BITMAP
C0
C0
C0
C0
ENDCHAR
STARTCHAR 0056
ENCODING 86
SWIDTH 600 0
DWIDTH 3 0
BBX 2 3 0 0
BITMAP
C0
C0
C0
ENDCHAR
STARTCHAR 0057
ENCODING 87
SWIDTH 800 0
DWIDTH 4 0
BBX 3 4 0 0
BITMAP
E0
E0
E0
E0
ENDCHAR
STARTCHAR 0058
ENCODING 88
SWIDTH 600 0
DWIDTH 3 0
BBX 2 4 0 0
BITMAP
C0
C0
C0
C0
ENDCHAR
STARTCHAR 0059
ENCODING 89
SWIDTH 800 0
DWIDTH 4 0
BBX 3 4 0 0
BITMAP
A0
A0
40
40
ENDCHAR
STARTCHAR 005A
ENCODING 90
SWIDTH 600 0
DWIDTH 3 0
BBX 2 4 0 0
BITMAP
C0
40
80
C0
ENDCHAR
STARTCHAR 005B
ENCODING 91
SWIDTH 400 0
DWIDTH 2 0
BBX 2 4 0 0
BITMAP
C0
80
80
C0
ENDCHAR
STARTCHAR 005C
ENCODING 92
SWIDTH 600 0
DWIDTH 3 0
BBX 2 2 0 1
BITMAP
80
40
ENDCHAR
STARTCHAR 005D
ENCODING 93
SWIDTH 400 0
DWIDTH 2 0
BBX 2 4 -1 0
BITMAP
C0
40
40
C0
ENDCHAR
STARTCHAR 005E
ENCODING 94
SWIDTH 600 0
DWIDTH 3 0
BBX 2 1 0 3
BITMAP
C0
ENDCHAR
STARTCHAR 005F
ENCODING 95
SWIDTH 600 0
DWIDTH 3 0
BBX 2 1 0 0
BITMAP
C0
ENDCHAR
STARTCHAR 0060
ENCODING 96
SWIDTH 400 0
DWIDTH 2 0
BBX 1 1 0 2
BITMAP
80
ENDCHAR
STARTCHAR 0061
ENCODING 97
SWIDTH 600 0
DWIDTH 3 0
BBX 2 3 0 0
BITMAP
40
C0
40
ENDCHAR
STARTCHAR 0062
ENCODING 98
SWIDTH 600 0
DWIDTH 3 0
BBX 2 4 0 0
BITMAP
80
80
C0
80
ENDCHAR
STARTCHAR 0063
ENCODING 99
SWIDTH 600 0
DWIDTH 3 0
BBX 2 3 0 0
BITMAP
C0
80
C0
ENDCHAR
STARTCHAR 0064
ENCODING 100
SWIDTH 600 0
DWIDTH 3 0
BBX 2 4 0 0
BITMAP
40
40
C0
40
ENDCHAR
STARTCHAR 0065
ENCODING 101
SWIDTH 600 0
DWIDTH 3 0
BBX 2 2 0 1
BITMAP
C0
40
ENDCHAR
STARTCHAR 0066
ENCODING 102
SWIDTH 400 0
DWIDTH 2 0
BBX 3 4 -1 0
BITMAP
60
40
E0
40
ENDCHAR
STARTCHAR 0067
ENCODING 103
SWIDTH 600 0
DWIDTH 3 0
BBX 2 4 0 -1
BITMAP
C0
C0
C0
80
ENDCHAR
STARTCHAR 0068
ENCODING 104
SWIDTH 600 0
DWIDTH 3 0
BBX 2 4 0 0
BITMAP
80
80
C0
C0
ENDCHAR
STARTCHAR 0069
ENCODING 105
SWIDTH 400 0
DWIDTH 2 0
BBX 1 4 0 0
BITMAP
80
00
80
80
ENDCHAR
STARTCHAR 006A
ENCODING 106
SWIDTH 400 0
DWIDTH 2 0
BBX 2 5 -1 -1
BITMAP
40
00
40
40
80
ENDCHAR
STARTCHAR 006B
ENCODING 107
SWIDTH 600 0
DWIDTH 3 0
BBX 2 4 0 0
BITMAP
80
C0
C0
C0
ENDCHAR
STARTCHAR 006C
ENCODING 108
SWIDTH 400 0
DWIDTH 2 0
BBX 2 4 -1 0
BITMAP
C0
40
40
40
ENDCHAR
STARTCHAR 006D
ENCODING 109
SWIDTH 800 0
DWIDTH 4 0
BBX 3 3 0 0
BITMAP
E0
E0
E0
ENDCHAR
STARTCHAR 006E
ENCODING 110
SWIDTH 600 0
DWIDTH 3 0
BBX 2 3 0 0
BITMAP
C0
C0
C0
ENDCHAR
STARTCHAR 006F
ENCODING 111
SWIDTH 600 0
DWIDTH 3 0
BBX 2 3 0 0
BITMAP
C0
C0
C0
ENDCHAR
STARTCHAR 0070
ENCODING 112
SWIDTH 600 0
DWIDTH 3 0
BBX 2 4 0 -1
BITMAP
80
C0
80
80
ENDCHAR
STARTCHAR 0071
ENCODING 113
SWIDTH 600 0
DWIDTH 3 0
BBX 2 4 0 -1
BITMAP
40
C0
40
40
ENDCHAR
STARTCHAR 0072
ENCODING 114
SWIDTH 600 0
DWIDTH 3 0
BBX 2 3 0 0
BITMAP
C0
C0
80
ENDCHAR
STARTCHAR 0073
ENCODING 115
SWIDTH 600 0
DWIDTH 3 0
BBX 2 3 0 0
BITMAP
40
C0
80
ENDCHAR
STARTCHAR 0074
ENCODING 116
SWIDTH 400 0
DWIDTH 2 0
BBX 3 4 -1 0
BITMAP
40
E0
40
60
ENDCHAR
STARTCHAR 0075
ENCODING 117
SWIDTH 600 0
DWIDTH 3 0
BBX 2 3 0 0
BITMAP
C0
C0
C0
ENDCHAR
STARTCHAR 0076
ENCODING 118
SWIDTH 600 0
DWIDTH 3 0
BBX 2 2 0 0
BITMAP
C0
C0
ENDCHAR
STARTCHAR 0077
ENCODING 119
SWIDTH 800 0
DWIDTH 4 0
BBX 3 3 0 0
BITMAP
E0
E0
E0
ENDCHAR
STARTCHAR 0078
ENCODING 120
SWIDTH 600 0
DWIDTH 3 0
BBX 2 3 0 0
BITMAP
C0
C0
C0
ENDCHAR
STARTCHAR 0079
ENCODING 121
SWIDTH 600 0
DWIDTH 3 0
BBX 2 4 0 -1
BITMAP
C0
C0
C0
80
ENDCHAR
STARTCHAR 007A
ENCODING 122
SWIDTH 600 0
DWIDTH 3 0
BBX 2 3 0 0
BITMAP
C0
C0
C0
ENDCHAR
STARTCHAR 007B
ENCODING 123
SWIDTH 400 0
DWIDTH 2 0
BBX 3 4 -1 0
BITMAP
60
40
C0
60
ENDCHAR
STARTCHAR 007C
ENCODING 124
SWIDTH 400 0
DWIDTH 2 0
BBX 1 4 0 0
BITMAP
80
80
80
80
ENDCHAR
STARTCHAR 007D
ENCODING 125
SWIDTH 400 0
DWIDTH 2 0
BBX 3 4 -1 0
BITMAP
C0
40
60
C0
ENDCHAR
STARTCHAR 007E
ENCODING 126
SWIDTH 600 0
DWIDTH 3 0
BBX 3 2 0 1
BITMAP
20
C0
ENDCHAR
STARTCHAR 00A0
ENCODING 160
SWIDTH 600 0
DWIDTH 3 0
BBX 0 0 0 0
BITMAP
ENDCHAR
STARTCHAR 00A1
ENCODING 161
SWIDTH 400 0
DWIDTH 2 0
BBX 1 4 0 -1
BITMAP
80
00
80
80
ENDCHAR
STARTCHAR 00A2
ENCODING 162
SWIDTH 600 0
DWIDTH 3 0
BBX 2 4 0 0
BITMAP
80
C0
C0
80
ENDCHAR
STARTCHAR 00A3
ENCODING 163
SWIDTH 600 0
DWIDTH 3 0
BBX 2 4 0 0
BITMAP
40
40
C0
C0
ENDCHAR
STARTCHAR 00A5
ENCODING 165
SWIDTH 600 0
DWIDTH 3 0
BBX 2 4 0 0
BITMAP
C0
C0
C0
80
ENDCHAR
STARTCHAR 00A6
ENCODING 166
SWIDTH 400 0
DWIDTH 2 0
BBX 1 4 0 0
BITMAP
80
80
80
80
ENDCHAR
STARTCHAR 00A7
ENCODING 167
SWIDTH 600 0
DWIDTH 3 0
BBX 2 4 0 0
BITMAP
C0
80
40
C0
ENDCHAR
STARTCHAR 00A8
ENCODING 168
SWIDTH 600 0
DWIDTH 3 0
BBX 2 1 0 3
BITMAP
C0
ENDCHAR
STARTCHAR 00A9
ENCODING 169
SWIDTH 600 0
DWIDTH 3 0
BBX 2 3 0 1
BITMAP
C0
80
C0
ENDCHAR
STARTCHAR 00AA
ENCODING 170
SWIDTH 600 0
DWIDTH 3 0
BBX 2 2 0 1
BITMAP
40
C0
ENDCHAR
STARTCHAR 00AB
ENCODING 171
SWIDTH 800 0
DWIDTH 4 0
BBX 3 2 0 1
BITMAP
20
A0
ENDCHAR
STARTCHAR 00AC
ENCODING 172
SWIDTH 600 0
DWIDTH 3 0
BBX 2 2 0 0
BITMAP
C0
40
ENDCHAR
STARTCHAR 00AD
ENCODING 173
SWIDTH 400 0
DWIDTH 2 0
BBX 1 1 0 1
BITMAP
80
ENDCHAR
STARTCHAR 00AE
ENCODING 174
SWIDTH 600 0
DWIDTH 3 0
BBX 2 3 0 1
BITMAP
C0
80
C0
ENDCHAR
STARTCHAR 00AF
ENCODING 175
SWIDTH 600 0
DWIDTH 3 0
BBX 2 1 0 3
BITMAP
C0
ENDCHAR
STARTCHAR 00B0
ENCODING 176
SWIDTH 200 0
DWIDTH 1 0
BBX 1 1 0 3
BITMAP
80
ENDCHAR
STARTCHAR 00B1
ENCODING 177
SWIDTH 600 0
DWIDTH 3 0
BBX 2 4 0 0
BITMAP
80
C0
00
C0
ENDCHAR
STARTCHAR 00B2
ENCODING 178
SWIDTH 400 0
DWIDTH 2 0
BBX 1 2 0 1
BITMAP
80
80
ENDCHAR
STARTCHAR 00B3
ENCODING 179
SWIDTH 400 0
DWIDTH 2 0
BBX 1 2 0 1
BITMAP
80
80
ENDCHAR
STARTCHAR 00B4
ENCODING 180
SWIDTH 400 0
DWIDTH 2 0
BBX 1 1 0 3
BITMAP
80
ENDCHAR
STARTCHAR 00B5
ENCODING 181
SWIDTH 600 0
DWIDTH 3 0
BBX 2 4 0 -1
BITMAP
C0
C0
C0
80
ENDCHAR
STARTCHAR 00B6
ENCODING 182
SWIDTH 600 0
DWIDTH 3 0
BBX 2 4 0 0
BITMAP
C0
C0
40
40
ENDCHAR
STARTCHAR 00B7
ENCODING 183
SWIDTH 200 0
DWIDTH 1 0
BBX 1 1 0 1
BITMAP
80
ENDCHAR
STARTCHAR 00B8
ENCODING 184
SWIDTH 200 0
DWIDTH 1 0
BBX 1 1 0 -1
BITMAP
80
ENDCHAR
STARTCHAR 00B9
ENCODING 185
SWIDTH 200 0
DWIDTH 1 0
BBX 1 2 0 1
BITMAP
80
80
ENDCHAR
STARTCHAR 00BA
ENCODING 186
SWIDTH 600 0
DWIDTH 3 0
BBX 2 2 0 1
BITMAP
C0
C0
ENDCHAR
STARTCHAR 00BB
ENCODING 187
SWIDTH 800 0
DWIDTH 4 0
BBX 3 2 0 1
BITMAP
A0
A0
ENDCHAR
STARTCHAR 00BC
ENCODING 188
SWIDTH 800 0
DWIDTH 4 0
BBX 3 4 0 0
BITMAP
80
80
20
20
ENDCHAR
STARTCHAR 00BD
ENCODING 189
SWIDTH 800 0
DWIDTH 4 0
BBX 4 4 0 0
BITMAP
80
E0
20
30
ENDCHAR
STARTCHAR 00BE
ENCODING 190
SWIDTH 800 0
DWIDTH 4 0
BBX 3 4 0 0
BITMAP
80
A0
20
20
ENDCHAR
STARTCHAR 00BF
ENCODING 191
SWIDTH 600 0
DWIDTH 3 0
BBX 2 2 0 1
BITMAP
80
C0
ENDCHAR
STARTCHAR 00C0
ENCODING 192
SWIDTH 600 0
DWIDTH 3 0
BBX 2 5 0 0
BITMAP
80
00
C0
C0
C0
ENDCHAR
STARTCHAR 00C1
ENCODING 193
SWIDTH 600 0
DWIDTH 3 0
BBX 2 5 0 0
BITMAP
40
00
C0
C0
C0
ENDCHAR
STARTCHAR 00C2
ENCODING 194
SWIDTH 600 0
DWIDTH 3 0
BBX 2 5 0 0
BITMAP
C0
00
C0
C0
C0
ENDCHAR
STARTCHAR 00C3
ENCODING 195
SWIDTH 600 0
DWIDTH 3 0
BBX 2 5 0 0
BITMAP
C0
00
C0
C0
C0
ENDCHAR
STARTCHAR 00C4
ENCODING 196
SWIDTH 600 0
DWIDTH 3 0
BBX 2 5 0 0
BITMAP
C0
00
C0
C0
C0
ENDCHAR
STARTCHAR 00C5
ENCODING 197
SWIDTH 600 0
DWIDTH 3 0
BBX 2 3 0 2
BITMAP
C0
C0
C0
ENDCHAR
STARTCHAR 00C6
ENCODING 198
SWIDTH 800 0
DWIDTH 4 0
BBX 4 4 0 0
BITMAP
F0
C0
F0
B0
ENDCHAR
STARTCHAR 00C7
ENCODING 199
SWIDTH 600 0
DWIDTH 3 0
BBX 2 5 0 -1
BITMAP
C0
80
80
C0
40
ENDCHAR
STARTCHAR 00C8
ENCODING 200
SWIDTH 600 0
DWIDTH 3 0
BBX 2 5 0 0
BITMAP
80
00
C0
80
C0
ENDCHAR
STARTCHAR 00C9
ENCODING 201
SWIDTH 600 0
DWIDTH 3 0
BBX 2 5 0 0
BITMAP
40
00
C0
80
C0
ENDCHAR
STARTCHAR 00CA
ENCODING 202
SWIDTH 600 0
DWIDTH 3 0
BBX 2 5 0 0
BITMAP
C0
00
C0
80
C0
ENDCHAR
STARTCHAR 00CB
ENCODING 203
SWIDTH 600 0
DWIDTH 3 0
BBX 2 5 0 0
BITMAP
C0
00
C0
80
C0
ENDCHAR
STARTCHAR 00CC
ENCODING 204
SWIDTH 400 0
DWIDTH 2 0
BBX 3 5 -1 0
BITMAP
C0
00
E0
40
E0
ENDCHAR
STARTCHAR 00CD
ENCODING 205
SWIDTH 400 0
DWIDTH 2 0
BBX 3 5 -1 0
BITMAP
60
00
E0
40
E0
ENDCHAR
STARTCHAR 00CE
ENCODING 206
SWIDTH 400 0
DWIDTH 2 0
BBX 3 5 -1 0
BITMAP
E0
00
E0
40
E0
ENDCHAR
STARTCHAR 00CF
ENCODING 207
SWIDTH 400 0
DWIDTH 2 0
BBX 3 5 -1 0
BITMAP
A0
00
E0
40
E0
ENDCHAR
STARTCHAR 00D0
ENCODING 208
SWIDTH 600 0
DWIDTH 3 0
BBX 2 4 0 0
BITMAP
80
C0
C0
80
ENDCHAR
STARTCHAR 00D1
ENCODING 209
SWIDTH 600 0
DWIDTH 3 0
BBX 2 5 0 0
BITMAP
C0
00
C0
C0
C0
ENDCHAR
STARTCHAR 00D2
ENCODING 210
SWIDTH 600 0
DWIDTH 3 0
BBX 2 5 0 0
BITMAP
80
00
C0
C0
C0
ENDCHAR
STARTCHAR 00D3
ENCODING 211
SWIDTH 600 0
DWIDTH 3 0
BBX 2 5 0 0
BITMAP
40
00
C0
C0
C0
ENDCHAR
STARTCHAR 00D4
ENCODING 212
SWIDTH 600 0
DWIDTH 3 0
BBX 2 5 0 0
BITMAP
C0
00
C0
C0
C0
ENDCHAR
STARTCHAR 00D5
ENCODING 213
SWIDTH 600 0
DWIDTH 3 0
BBX 2 5 0 0
BITMAP
C0
00
C0
C0
C0
ENDCHAR
STARTCHAR 00D6
ENCODING 214
SWIDTH 600 0
DWIDTH 3 0
BBX 2 5 0 0
BITMAP
C0
00
C0
C0
C0
ENDCHAR
STARTCHAR 00D7
ENCODING 215
SWIDTH 600 0
DWIDTH 3 0
BBX 2 2 0 1
BITMAP
C0
C0
ENDCHAR
STARTCHAR 00D8
ENCODING 216
SWIDTH 800 0
DWIDTH 4 0
BBX 3 4 0 0
BITMAP
E0
E0
A0
E0
ENDCHAR
STARTCHAR 00D9
ENCODING 217
SWIDTH 600 0
DWIDTH 3 0
BBX 2 5 0 0
BITMAP
80
00
C0
C0
C0
ENDCHAR
STARTCHAR 00DA
ENCODING 218
SWIDTH 600 0
DWIDTH 3 0
BBX 2 5 0 0
BITMAP
40
00
C0
C0
C0
ENDCHAR
STARTCHAR 00DB
ENCODING 219
SWIDTH 600 0
DWIDTH 3 0
BBX 2 5 0 0
BITMAP
C0
00
C0
C0
C0
ENDCHAR
STARTCHAR 00DC
ENCODING 220
SWIDTH 600 0
DWIDTH 3 0
BBX 2 5 0 0
BITMAP
C0
00
C0
C0
C0
ENDCHAR
STARTCHAR 00DD
ENCODING 221
SWIDTH 400 0
DWIDTH 2 0
BBX 2 5 0 0
BITMAP
C0
00
C0
C0
80
ENDCHAR
STARTCHAR 00DE
ENCODING 222
SWIDTH 600 0
DWIDTH 3 0
BBX 2 4 0 0
BITMAP
80
C0
C0
80
ENDCHAR
STARTCHAR 00DF
ENCODING 223
SWIDTH 600 0
DWIDTH 3 0
BBX 2 5 0 -1
BITMAP
80
C0
80
C0
80
ENDCHAR
STARTCHAR 00E0
ENCODING 224
SWIDTH 600 0
DWIDTH 3 0
BBX 2 4 0 0
BITMAP
80
00
C0
40
ENDCHAR
STARTCHAR 00E1
ENCODING 225
SWIDTH 600 0
DWIDTH 3 0
BBX 2 4 0 0
BITMAP
40
00
C0
40
ENDCHAR
STARTCHAR 00E2
ENCODING 226
SWIDTH 600 0
DWIDTH 3 0
BBX 2 4 0 0
BITMAP
C0
00
C0
40
ENDCHAR
STARTCHAR 00E3
ENCODING 227
SWIDTH 600 0
DWIDTH 3 0
BBX 2 4 0 0
BITMAP
C0
00
C0
40
ENDCHAR
STARTCHAR 00E4
ENCODING 228
SWIDTH 600 0
DWIDTH 3 0
BBX 2 4 0 0
BITMAP
C0
00
C0
40
ENDCHAR
STARTCHAR 00E5
ENCODING 229
SWIDTH 600 0
DWIDTH 3 0
BBX 2 2 0 2
BITMAP
C0
40
ENDCHAR
STARTCHAR 00E6
ENCODING 230
SWIDTH 800 0
DWIDTH 4 0
BBX 4 3 0 0
BITMAP
60
B0
70
ENDCHAR
STARTCHAR 00E7
ENCODING 231
SWIDTH 600 0
DWIDTH 3 0
BBX 2 4 0 -1
BITMAP
C0
80
C0
40
ENDCHAR
STARTCHAR 00E8
ENCODING 232
SWIDTH 600 0
DWIDTH 3 0
BBX 2 4 0 0
BITMAP
80
00
C0
40
ENDCHAR
STARTCHAR 00E9
ENCODING 233
SWIDTH 600 0
DWIDTH 3 0
BBX 2 4 0 0
BITMAP
40
00
C0
40
ENDCHAR
STARTCHAR 00EA
ENCODING 234
SWIDTH 600 0
DWIDTH 3 0
BBX 2 4 0 0
BITMAP
C0
00
C0
40
ENDCHAR
STARTCHAR 00EB
ENCODING 235
SWIDTH 600 0
DWIDTH 3 0
BBX 2 4 0 0
BITMAP
C0
00
C0
40
ENDCHAR
STARTCHAR 00EC
ENCODING 236
SWIDTH 400 0
DWIDTH 2 0
BBX 2 4 -1 0
BITMAP
C0
00
40
40
ENDCHAR
STARTCHAR 00ED
ENCODING 237
SWIDTH 400 0
DWIDTH 2 0
BBX 2 4 0 0
BITMAP
C0
00
80
80
ENDCHAR
STARTCHAR 00EE
ENCODING 238
SWIDTH 400 0
DWIDTH 2 0
BBX 3 4 -1 0
BITMAP
40
A0
40
40
ENDCHAR
STARTCHAR 00EF
ENCODING 239
SWIDTH 400 0
DWIDTH 2 0
BBX 3 4 -1 0
BITMAP
A0
00
40
40
ENDCHAR
STARTCHAR 00F0
ENCODING 240
SWIDTH 600 0
DWIDTH 3 0
BBX 2 4 0 0
BITMAP
80
40
C0
40
ENDCHAR
STARTCHAR 00F1
ENCODING 241
SWIDTH 600 0
DWIDTH 3 0
BBX 2 4 0 0
BITMAP
C0
00
C0
C0
ENDCHAR
STARTCHAR 00F2
ENCODING 242
SWIDTH 600 0
DWIDTH 3 0
BBX 2 4 0 0
BITMAP
80
00
C0
C0
ENDCHAR
STARTCHAR 00F3
ENCODING 243
SWIDTH 600 0
DWIDTH 3 0
BBX 2 4 0 0
BITMAP
40
00
C0
C0
ENDCHAR
STARTCHAR 00F4
ENCODING 244
SWIDTH 600 0
DWIDTH 3 0
BBX 2 4 0 0
BITMAP
C0
00
C0
C0
ENDCHAR
STARTCHAR 00F5
ENCODING 245
SWIDTH 600 0
DWIDTH 3 0
BBX 2 4 0 0
BITMAP
C0
00
C0
C0
ENDCHAR
STARTCHAR 00F6
ENCODING 246
SWIDTH 600 0
DWIDTH 3 0
BBX 2 4 0 0
BITMAP
C0
00
C0
C0
ENDCHAR
STARTCHAR 00F7
ENCODING 247
SWIDTH 600 0
DWIDTH 3 0
BBX 2 1 0 2
BITMAP
C0
ENDCHAR
STARTCHAR 00F8
ENCODING 248
SWIDTH 600 0
DWIDTH 3 0
BBX 3 3 0 0
BITMAP
40
E0
40
ENDCHAR
STARTCHAR 00F9
ENCODING 249
SWIDTH 600 0
DWIDTH 3 0
BBX 2 4 0 0
BITMAP
80
00
C0
C0
ENDCHAR
STARTCHAR 00FA
ENCODING 250
SWIDTH 600 0
DWIDTH 3 0
BBX 2 4 0 0
BITMAP
40
00
C0
C0
ENDCHAR
STARTCHAR 00FB
ENCODING 251
SWIDTH 600 0
DWIDTH 3 0
BBX 2 4 0 0
BITMAP
C0
00
C0
C0
ENDCHAR
STARTCHAR 00FC
ENCODING 252
SWIDTH 600 0
DWIDTH 3 0
BBX 2 4 0 0
BITMAP
C0
00
C0
C0
ENDCHAR
STARTCHAR 00FD
ENCODING 253
SWIDTH 600 0
DWIDTH 3 0
BBX 2 5 0 -1
BITMAP
40
00
C0
C0
80
ENDCHAR
STARTCHAR 00FE
ENCODING 254
SWIDTH 600 0
DWIDTH 3 0
BBX 2 4 0 -1
BITMAP
80
C0
C0
80
ENDCHAR
STARTCHAR 00FF
ENCODING 255
SWIDTH 600 0
DWIDTH 3 0
BBX 2 5 0 -1
BITMAP
C0
00
C0
C0
80
ENDCHAR
STARTCHAR 0104
ENCODING 260
SWIDTH 600 0
DWIDTH 3 0
BBX 2 5 0 -1
BITMAP
C0
C0
C0
C0
40
ENDCHAR
STARTCHAR 0105
ENCODING 261
SWIDTH 600 0
DWIDTH 3 0
BBX 2 3 0 -1
BITMAP
40
C0
40
ENDCHAR
STARTCHAR 0106
ENCODING 262
SWIDTH 600 0
DWIDTH 3 0
BBX 2 5 0 0
BITMAP
40
00
C0
80
C0
ENDCHAR
STARTCHAR 0107
ENCODING 263
SWIDTH 600 0
DWIDTH 3 0
BBX 2 4 0 0
BITMAP
40
00
C0
C0
ENDCHAR
STARTCHAR 0118
ENCODING 280
SWIDTH 600 0
DWIDTH 3 0
BBX 2 5 0 -1
BITMAP
C0
80
C0
C0
80
ENDCHAR
STARTCHAR 0119
ENCODING 281
SWIDTH 400 0
DWIDTH 2 0
BBX 2 4 0 -1
BITMAP
80
C0
C0
80
ENDCHAR
STARTCHAR 0132
ENCODING 306
SWIDTH 800 0
DWIDTH 4 0
BBX 3 4 0 0
BITMAP
A0
A0
A0
C0
ENDCHAR
STARTCHAR 0133
ENCODING 307
SWIDTH 800 0
DWIDTH 4 0
BBX 3 5 0 -1
BITMAP
A0
00
A0
A0
40
ENDCHAR
STARTCHAR 0141
ENCODING 321
SWIDTH 400 0
DWIDTH 2 0
BBX 3 4 -1 0
BITMAP
40
60
C0
60
ENDCHAR
STARTCHAR 0142
ENCODING 322
SWIDTH 400 0
DWIDTH 2 0
BBX 3 4 -1 0
BITMAP
C0
40
E0
40
ENDCHAR
STARTCHAR 0143
ENCODING 323
SWIDTH 600 0
DWIDTH 3 0
BBX 2 5 0 0
BITMAP
40
00
C0
C0
C0
ENDCHAR
STARTCHAR 0144
ENCODING 324
SWIDTH 600 0
DWIDTH 3 0
BBX 2 4 0 0
BITMAP
40
00
C0
C0
ENDCHAR
STARTCHAR 0152
ENCODING 338
SWIDTH 800 0
DWIDTH 4 0
BBX 4 4 0 0
BITMAP
F0
C0
B0
F0
ENDCHAR
STARTCHAR 0153
ENCODING 339
SWIDTH 800 0
DWIDTH 4 0
BBX 4 3 0 0
BITMAP
60
B0
70
ENDCHAR
STARTCHAR 015A
ENCODING 346
SWIDTH 600 0
DWIDTH 3 0
BBX 2 5 0 0
BITMAP
40
00
C0
C0
C0
ENDCHAR
STARTCHAR 015B
ENCODING 347
SWIDTH 400 0
DWIDTH 2 0
BBX 3 4 -1 0
BITMAP
60
00
60
C0
ENDCHAR
STARTCHAR 0174
ENCODING 372
SWIDTH 800 0
DWIDTH 4 0
BBX 3 5 0 0
BITMAP
40
00
E0
E0
E0
ENDCHAR
STARTCHAR 0175
ENCODING 373
SWIDTH 800 0
DWIDTH 4 0
BBX 3 4 0 0
BITMAP
40
00
E0
E0
ENDCHAR
STARTCHAR 0176
ENCODING 374
SWIDTH 400 0
DWIDTH 2 0
BBX 2 5 0 0
BITMAP
C0
00
C0
C0
80
ENDCHAR
STARTCHAR 0177
ENCODING 375
SWIDTH 600 0
DWIDTH 3 0
BBX 2 5 0 -1
BITMAP
C0
00
C0
C0
80
ENDCHAR
STARTCHAR 0178
ENCODING 376
SWIDTH 400 0
DWIDTH 2 0
BBX 2 5 0 0
BITMAP
40
00
C0
C0
80
ENDCHAR
STARTCHAR 0179
ENCODING 377
SWIDTH 600 0
DWIDTH 3 0
BBX 2 5 0 0
BITMAP
40
00
C0
C0
C0
ENDCHAR
STARTCHAR 017A
ENCODING 378
SWIDTH 400 0
DWIDTH 2 0
BBX 3 4 -1 0
BITMAP
60
00
C0
60
ENDCHAR
STARTCHAR 017B
ENCODING 379
SWIDTH 600 0
DWIDTH 3 0
BBX 2 3 0 2
BITMAP
C0
C0
C0
ENDCHAR
STARTCHAR 017C
ENCODING 380
SWIDTH 400 0
DWIDTH 2 0
BBX 3 4 -1 0
BITMAP
40
00
C0
60
ENDCHAR
STARTCHAR 0391
ENCODING 913
SWIDTH 600 0
DWIDTH 3 0
BBX 2 4 0 0
BITMAP
C0
C0
C0
C0
ENDCHAR
STARTCHAR 0392
ENCODING 914
SWIDTH 600 0
DWIDTH 3 0
BBX 2 4 0 0
BITMAP
C0
C0
C0
C0
ENDCHAR
STARTCHAR 0393
ENCODING 915
SWIDTH 600 0
DWIDTH 3 0
BBX 2 4 0 0
BITMAP
C0
80
80
80
ENDCHAR
STARTCHAR 0394
ENCODING 916
SWIDTH 600 0
DWIDTH 3 0
BBX 2 3 0 1
BITMAP
C0
C0
C0
ENDCHAR
STARTCHAR 0395
ENCODING 917
SWIDTH 600 0
DWIDTH 3 0
BBX 2 4 0 0
BITMAP
C0
80
C0
C0
ENDCHAR
STARTCHAR 0396
ENCODING 918
SWIDTH 600 0
DWIDTH 3 0
BBX 2 4 0 0
BITMAP
C0
40
80
C0
ENDCHAR
STARTCHAR 0397
ENCODING 919
SWIDTH 600 0
DWIDTH 3 0
BBX 2 4 0 0
BITMAP
C0
C0
C0
C0
ENDCHAR
STARTCHAR 0398
ENCODING 920
SWIDTH 600 0
DWIDTH 3 0
BBX 2 4 0 0
BITMAP
C0
C0
C0
C0
ENDCHAR
STARTCHAR 0399
ENCODING 921
SWIDTH 400 0
DWIDTH 2 0
BBX 3 4 -1 0
BITMAP
E0
40
40
E0
ENDCHAR
STARTCHAR 039A
ENCODING 922
SWIDTH 600 0
DWIDTH 3 0
BBX 2 4 0 0
BITMAP
C0
C0
C0
C0
ENDCHAR
STARTCHAR 039B
ENCODING 923
SWIDTH 600 0
DWIDTH 3 0
BBX 2 3 0 1
BITMAP
C0
C0
C0
ENDCHAR
STARTCHAR 039C
ENCODING 924
SWIDTH 800 0
DWIDTH 4 0
BBX 3 4 0 0
BITMAP
E0
E0
E0
E0
ENDCHAR
STARTCHAR 039D
ENCODING 925
SWIDTH 800 0
DWIDTH 4 0
BBX 3 4 0 0
BITMAP
A0
E0
E0
A0
ENDCHAR
STARTCHAR 039E
ENCODING 926
SWIDTH 600 0
DWIDTH 3 0
BBX 2 4 0 0
BITMAP
C0
00
C0
C0
ENDCHAR
STARTCHAR 039F
ENCODING 927
SWIDTH 600 0
DWIDTH 3 0
BBX 2 4 0 0
BITMAP
C0
C0
C0
C0
ENDCHAR
STARTCHAR 03A0
ENCODING 928
SWIDTH 600 0
DWIDTH 3 0
BBX 2 4 0 0
BITMAP
C0
C0
C0
C0
ENDCHAR
STARTCHAR 03A1
ENCODING 929
SWIDTH 600 0
DWIDTH 3 0
BBX 2 4 0 0
BITMAP
C0
C0
C0
80
ENDCHAR
STARTCHAR 03A3
ENCODING 931
SWIDTH 600 0
DWIDTH 3 0
BBX 2 4 0 0
BITMAP
C0
80
80
C0
ENDCHAR
STARTCHAR 03A4
ENCODING 932
SWIDTH 400 0
DWIDTH 2 0
BBX 3 4 -1 0
BITMAP
E0
40
40
40
ENDCHAR
STARTCHAR 03A5
ENCODING 933
SWIDTH 800 0
DWIDTH 4 0
BBX 3 4 0 0
BITMAP
A0
A0
40
40
ENDCHAR
STARTCHAR 03A6
ENCODING 934
SWIDTH 600 0
DWIDTH 3 0
BBX 2 4 0 0
BITMAP
80
C0
C0
80
ENDCHAR
STARTCHAR 03A7
ENCODING 935
SWIDTH 600 0
DWIDTH 3 0
BBX 2 4 0 0
BITMAP
C0
C0
C0
C0
ENDCHAR
STARTCHAR 03A8
ENCODING 936
SWIDTH 800 0
DWIDTH 4 0
BBX 3 4 0 0
BITMAP
E0
E0
E0
40
ENDCHAR
STARTCHAR 03A9
ENCODING 937
SWIDTH 600 0
DWIDTH 3 0
BBX 2 4 0 0
BITMAP
C0
C0
C0
C0
ENDCHAR
STARTCHAR 03B1
ENCODING 945
SWIDTH 600 0
DWIDTH 3 0
BBX 2 3 0 0
BITMAP
40
C0
40
ENDCHAR
STARTCHAR 03B2
ENCODING 946
SWIDTH 600 0
DWIDTH 3 0
BBX 2 5 0 -1
BITMAP
80
C0
80
C0
80
ENDCHAR
STARTCHAR 03B3
ENCODING 947
SWIDTH 800 0
DWIDTH 4 0
BBX 3 4 0 -1
BITMAP
A0
A0
40
40
ENDCHAR
STARTCHAR 03B4
ENCODING 948
SWIDTH 600 0
DWIDTH 3 0
BBX 2 4 0 0
BITMAP
C0
80
C0
C0
ENDCHAR
STARTCHAR 03B5
ENCODING 949
SWIDTH 600 0
DWIDTH 3 0
BBX 2 3 0 0
BITMAP
40
80
40
ENDCHAR
STARTCHAR 03B6
ENCODING 950
SWIDTH 600 0
DWIDTH 3 0
BBX 2 5 0 -1
BITMAP
C0
00
80
40
C0
ENDCHAR
STARTCHAR 03B7
ENCODING 951
SWIDTH 600 0
DWIDTH 3 0
BBX 2 4 0 -1
BITMAP
C0
C0
C0
40
ENDCHAR
STARTCHAR 03B8
ENCODING 952
SWIDTH 600 0
DWIDTH 3 0
BBX 2 2 0 1
BITMAP
C0
C0
ENDCHAR
STARTCHAR 03B9
ENCODING 953
SWIDTH 400 0
DWIDTH 2 0
BBX 1 3 0 0
BITMAP
80
80
80
ENDCHAR
STARTCHAR 03BA
ENCODING 954
SWIDTH 600 0
DWIDTH 3 0
BBX 2 3 0 0
BITMAP
C0
C0
C0
ENDCHAR
STARTCHAR 03BB
ENCODING 955
SWIDTH 600 0
DWIDTH 3 0
BBX 2 4 0 0
BITMAP
40
40
C0
C0
ENDCHAR
STARTCHAR 03BC
ENCODING 956
SWIDTH 600 0
DWIDTH 3 0
BBX 2 4 0 -1
BITMAP
C0
C0
C0
80
ENDCHAR
STARTCHAR 03BD
ENCODING 957
SWIDTH 600 0
DWIDTH 3 0
BBX 2 2 0 0
BITMAP
C0
C0
ENDCHAR
STARTCHAR 03BE
ENCODING 958
SWIDTH 600 0
DWIDTH 3 0
BBX 3 5 0 -1
BITMAP
E0
40
60
60
20
ENDCHAR
STARTCHAR 03BF
ENCODING 959
SWIDTH 600 0
DWIDTH 3 0
BBX 2 3 0 0
BITMAP
C0
C0
C0
ENDCHAR
STARTCHAR 03C0
ENCODING 960
SWIDTH 600 0
DWIDTH 3 0
BBX 2 3 0 0
BITMAP
C0
C0
C0
ENDCHAR
STARTCHAR 03C1
ENCODING 961
SWIDTH 600 0
DWIDTH 3 0
BBX 2 4 0 -1
BITMAP
C0
C0
C0
80
ENDCHAR
STARTCHAR 03C2
ENCODING 962
SWIDTH 600 0
DWIDTH 3 0
BBX 2 4 0 -1
BITMAP
C0
80
C0
40
ENDCHAR
STARTCHAR 03C3
ENCODING 963
SWIDTH 600 0
DWIDTH 3 0
BBX 3 3 0 0
BITMAP
E0
C0
C0
ENDCHAR
STARTCHAR 03C4
ENCODING 964
SWIDTH 400 0
DWIDTH 2 0
BBX 3 3 -1 0
BITMAP
E0
40
40
ENDCHAR
STARTCHAR 03C5
ENCODING 965
SWIDTH 600 0
DWIDTH 3 0
BBX 2 3 0 0
BITMAP
C0
C0
C0
ENDCHAR
STARTCHAR 03C6
ENCODING 966
SWIDTH 600 0
DWIDTH 3 0
BBX 2 4 0 -1
BITMAP
80
C0
C0
80
ENDCHAR
STARTCHAR 03C7
ENCODING 967
SWIDTH 600 0
DWIDTH 3 0
BBX 2 4 0 -1
BITMAP
C0
C0
C0
C0
ENDCHAR
STARTCHAR 03C8
ENCODING 968
SWIDTH 800 0
DWIDTH 4 0
BBX 3 4 0 -1
BITMAP
E0
E0
E0
40
ENDCHAR
STARTCHAR 03C9
ENCODING 969
SWIDTH 800 0
DWIDTH 4 0
BBX 3 3 0 0
BITMAP
A0
E0
E0
ENDCHAR
STARTCHAR 0401
ENCODING 1025
SWIDTH 600 0
DWIDTH 3 0
BBX 2 5 0 0
BITMAP
C0
00
C0
80
C0
ENDCHAR
STARTCHAR 0410
ENCODING 1040
SWIDTH 600 0
DWIDTH 3 0
BBX 2 4 0 0
BITMAP
C0
C0
C0
C0
ENDCHAR
STARTCHAR 0411
ENCODING 1041
SWIDTH 600 0
DWIDTH 3 0
BBX 2 4 0 0
BITMAP
C0
80
C0
C0
ENDCHAR
STARTCHAR 0412
ENCODING 1042
SWIDTH 600 0
DWIDTH 3 0
BBX 2 4 0 0
BITMAP
C0
C0
C0
C0
ENDCHAR
STARTCHAR 0413
ENCODING 1043
SWIDTH 600 0
DWIDTH 3 0
BBX 2 4 0 0
BITMAP
C0
80
80
80
ENDCHAR
STARTCHAR 0414
ENCODING 1044
SWIDTH 600 0
DWIDTH 3 0
BBX 2 3 0 1
BITMAP
C0
C0
C0
ENDCHAR
STARTCHAR 0415
ENCODING 1045
SWIDTH 600 0
DWIDTH 3 0
BBX 2 4 0 0
BITMAP
C0
80
C0
C0
ENDCHAR
STARTCHAR 0416
ENCODING 1046
SWIDTH 800 0
DWIDTH 4 0
BBX 3 4 0 0
BITMAP
E0
E0
E0
E0
ENDCHAR
STARTCHAR 0417
ENCODING 1047
SWIDTH 600 0
DWIDTH 3 0
BBX 2 4 0 0
BITMAP
C0
40
C0
C0
ENDCHAR
STARTCHAR 0418
ENCODING 1048
SWIDTH 600 0
DWIDTH 3 0
BBX 2 4 0 0
BITMAP
C0
C0
C0
C0
ENDCHAR
STARTCHAR 0419
ENCODING 1049
SWIDTH 600 0
DWIDTH 3 0
BBX 2 5 0 0
BITMAP
C0
00
C0
C0
C0
ENDCHAR
STARTCHAR 041A
ENCODING 1050
SWIDTH 600 0
DWIDTH 3 0
BBX 2 4 0 0
BITMAP
C0
C0
C0
C0
ENDCHAR
STARTCHAR 041B
ENCODING 1051
SWIDTH 600 0
DWIDTH 3 0
BBX 3 4 -1 0
BITMAP
60
60
60
A0
ENDCHAR
STARTCHAR 041C
ENCODING 1052
SWIDTH 800 0
DWIDTH 4 0
BBX 3 4 0 0
BITMAP
E0
E0
E0
E0
ENDCHAR
STARTCHAR 041D
ENCODING 1053
SWIDTH 600 0
DWIDTH 3 0
BBX 2 4 0 0
BITMAP
C0
C0
C0
C0
ENDCHAR
STARTCHAR 041E
ENCODING 1054
SWIDTH 600 0
DWIDTH 3 0
BBX 2 4 0 0
BITMAP
C0
C0
C0
C0
ENDCHAR
STARTCHAR 041F
ENCODING 1055
SWIDTH 600 0
DWIDTH 3 0
BBX 2 4 0 0
BITMAP
C0
C0
C0
C0
ENDCHAR
STARTCHAR 0420
ENCODING 1056
SWIDTH 600 0
DWIDTH 3 0
BBX 2 4 0 0
BITMAP
C0
C0
C0
80
ENDCHAR
STARTCHAR 0421
ENCODING 1057
SWIDTH 600 0
DWIDTH 3 0
BBX 2 4 0 0
BITMAP
C0
80
80
C0
ENDCHAR
STARTCHAR 0422
ENCODING 1058
SWIDTH 400 0
DWIDTH 2 0
BBX 3 4 -1 0
BITMAP
E0
40
40
40
ENDCHAR
STARTCHAR 0423
ENCODING 1059
SWIDTH 600 0
DWIDTH 3 0
BBX 2 4 0 0
BITMAP
C0
C0
C0
C0
ENDCHAR
STARTCHAR 0424
ENCODING 1060
SWIDTH 600 0
DWIDTH 3 0
BBX 2 4 0 0
BITMAP
80
C0
C0
80
ENDCHAR
STARTCHAR 0425
ENCODING 1061
SWIDTH 600 0
DWIDTH 3 0
BBX 2 4 0 0
BITMAP
C0
C0
C0
C0
ENDCHAR
STARTCHAR 0426
ENCODING 1062
SWIDTH 600 0
DWIDTH 3 0
BBX 2 5 0 -1
BITMAP
C0
C0
C0
C0
40
ENDCHAR
STARTCHAR 0427
ENCODING 1063
SWIDTH 600 0
DWIDTH 3 0
BBX 2 4 0 0
BITMAP
C0
C0
C0
40
ENDCHAR
STARTCHAR 0428
ENCODING 1064
SWIDTH 800 0
DWIDTH 4 0
BBX 3 4 0 0
BITMAP
E0
E0
E0
E0
ENDCHAR
STARTCHAR 0429
ENCODING 1065
SWIDTH 800 0
DWIDTH 4 0
BBX 3 5 0 -1
BITMAP
E0
E0
E0
E0
20
ENDCHAR
STARTCHAR 042A
ENCODING 1066
SWIDTH 800 0
DWIDTH 4 0
BBX 3 4 0 0
BITMAP
C0
40
60
60
ENDCHAR
STARTCHAR 042B
ENCODING 1067
SWIDTH 800 0
DWIDTH 4 0
BBX 3 4 0 0
BITMAP
A0
A0
E0
E0
ENDCHAR
STARTCHAR 042C
ENCODING 1068
SWIDTH 600 0
DWIDTH 3 0
BBX 2 4 0 0
BITMAP
80
80
C0
C0
ENDCHAR
STARTCHAR 042D
ENCODING 1069
SWIDTH 600 0
DWIDTH 3 0
BBX 2 4 0 0
BITMAP
80
40
C0
80
ENDCHAR
STARTCHAR 042E
ENCODING 1070
SWIDTH 800 0
DWIDTH 4 0
BBX 3 4 0 0
BITMAP
E0
E0
E0
E0
ENDCHAR
STARTCHAR 042F
ENCODING 1071
SWIDTH 600 0
DWIDTH 3 0
BBX 2 4 0 0
BITMAP
C0
C0
C0
C0
ENDCHAR
STARTCHAR 0430
ENCODING 1072
SWIDTH 600 0
DWIDTH 3 0
BBX 2 3 0 0
BITMAP
40
C0
40
ENDCHAR
STARTCHAR 0431
ENCODING 1073
SWIDTH 600 0
DWIDTH 3 0
BBX 2 4 0 0
BITMAP
40
80
C0
C0
ENDCHAR
STARTCHAR 0432
ENCODING 1074
SWIDTH 600 0
DWIDTH 3 0
BBX 2 3 0 0
BITMAP
80
C0
80
ENDCHAR
STARTCHAR 0433
ENCODING 1075
SWIDTH 600 0
DWIDTH 3 0
BBX 2 3 0 0
BITMAP
C0
80
80
ENDCHAR
STARTCHAR 0434
ENCODING 1076
SWIDTH 600 0
DWIDTH 3 0
BBX 2 2 0 1
BITMAP
C0
C0
ENDCHAR
STARTCHAR 0435
ENCODING 1077
SWIDTH 600 0
DWIDTH 3 0
BBX 2 2 0 1
BITMAP
C0
40
ENDCHAR
STARTCHAR 0436
ENCODING 1078
SWIDTH 800 0
DWIDTH 4 0
BBX 3 3 0 0
BITMAP
E0
E0
E0
ENDCHAR
STARTCHAR 0437
ENCODING 1079
SWIDTH 600 0
DWIDTH 3 0
BBX 2 3 0 0
BITMAP
C0
40
C0
ENDCHAR
STARTCHAR 0438
ENCODING 1080
SWIDTH 600 0
DWIDTH 3 0
BBX 2 3 0 0
BITMAP
C0
C0
C0
ENDCHAR
STARTCHAR 0439
ENCODING 1081
SWIDTH 600 0
DWIDTH 3 0
BBX 2 4 0 0
BITMAP
C0
00
C0
C0
ENDCHAR
STARTCHAR 043A
ENCODING 1082
SWIDTH 600 0
DWIDTH 3 0
BBX 2 3 0 0
BITMAP
C0
C0
C0
ENDCHAR
STARTCHAR 043B
ENCODING 1083
SWIDTH 600 0
DWIDTH 3 0
BBX 3 3 -1 0
BITMAP
60
60
A0
ENDCHAR
STARTCHAR 043C
ENCODING 1084
SWIDTH 800 0
DWIDTH 4 0
BBX 3 3 0 0
BITMAP
A0
E0
E0
ENDCHAR
STARTCHAR 043D
ENCODING 1085
SWIDTH 600 0
DWIDTH 3 0
BBX 2 3 0 0
BITMAP
C0
C0
C0
ENDCHAR
STARTCHAR 043E
ENCODING 1086
SWIDTH 600 0
DWIDTH 3 0
BBX 2 3 0 0
BITMAP
C0
C0
C0
ENDCHAR
STARTCHAR 043F
ENCODING 1087
SWIDTH 600 0
DWIDTH 3 0
BBX 2 3 0 0
BITMAP
C0
C0
C0
ENDCHAR
STARTCHAR 0440
ENCODING 1088
SWIDTH 600 0
DWIDTH 3 0
BBX 2 4 0 -1
BITMAP
80
C0
80
80
ENDCHAR
STARTCHAR 0441
ENCODING 1089
SWIDTH 600 0
DWIDTH 3 0
BBX 2 3 0 0
BITMAP
C0
80
C0
ENDCHAR
STARTCHAR 0442
ENCODING 1090
SWIDTH 400 0
DWIDTH 2 0
BBX 3 3 -1 0
BITMAP
E0
40
40
ENDCHAR
STARTCHAR 0443
ENCODING 1091
SWIDTH 600 0
DWIDTH 3 0
BBX 2 4 0 -1
BITMAP
C0
C0
C0
80
ENDCHAR
STARTCHAR 0444
ENCODING 1092
SWIDTH 600 0
DWIDTH 3 0
BBX 2 3 0 0
BITMAP
C0
C0
C0
ENDCHAR
STARTCHAR 0445
ENCODING 1093
SWIDTH 600 0
DWIDTH 3 0
BBX 2 3 0 0
BITMAP
C0
C0
C0
ENDCHAR
STARTCHAR 0446
ENCODING 1094
SWIDTH 600 0
DWIDTH 3 0
BBX 2 4 0 -1
BITMAP
C0
C0
C0
40
ENDCHAR
STARTCHAR 0447
ENCODING 1095
SWIDTH 600 0
DWIDTH 3 0
BBX 2 3 0 0
BITMAP
C0
C0
40
ENDCHAR
STARTCHAR 0448
ENCODING 1096
SWIDTH 800 0
DWIDTH 4 0
BBX 3 3 0 0
BITMAP
E0
E0
E0
ENDCHAR
STARTCHAR 0449
ENCODING 1097
SWIDTH 800 0
DWIDTH 4 0
BBX 3 4 0 -1
BITMAP
E0
E0
E0
20
ENDCHAR
STARTCHAR 044A
ENCODING 1098
SWIDTH 600 0
DWIDTH 3 0
BBX 3 3 0 0
BITMAP
C0
60
40
ENDCHAR
STARTCHAR 044B
ENCODING 1099
SWIDTH 800 0
DWIDTH 4 0
BBX 3 3 0 0
BITMAP
A0
E0
A0
ENDCHAR
STARTCHAR 044C
ENCODING 1100
SWIDTH 600 0
DWIDTH 3 0
BBX 2 3 0 0
BITMAP
80
C0
80
ENDCHAR
STARTCHAR 044D
ENCODING 1101
SWIDTH 600 0
DWIDTH 3 0
BBX 2 3 0 0
BITMAP
80
40
80
ENDCHAR
STARTCHAR 044E
ENCODING 1102
SWIDTH 800 0
DWIDTH 4 0
BBX 3 3 0 0
BITMAP
E0
E0
E0
ENDCHAR
STARTCHAR 044F
ENCODING 1103
SWIDTH 600 0
DWIDTH 3 0
BBX 2 3 0 0
BITMAP
40
C0
C0
ENDCHAR
STARTCHAR 0451
ENCODING 1105
SWIDTH 600 0
DWIDTH 3 0
BBX 2 4 0 0
BITMAP
C0
00
C0
40
ENDCHAR
STARTCHAR 0464
ENCODING 1124
SWIDTH 600 0
DWIDTH 3 0
BBX 2 5 0 0
BITMAP
40
00
C0
C0
C0
ENDCHAR
STARTCHAR 0465
ENCODING 1125
SWIDTH 600 0
DWIDTH 3 0
BBX 2 4 0 0
BITMAP
40
00
C0
40
ENDCHAR
STARTCHAR 0466
ENCODING 1126
SWIDTH 600 0
DWIDTH 3 0
BBX 2 5 0 0
BITMAP
40
00
C0
80
C0
ENDCHAR
STARTCHAR 0467
ENCODING 1127
SWIDTH 600 0
DWIDTH 3 0
BBX 2 4 0 0
BITMAP
40
00
C0
40
ENDCHAR
STARTCHAR 0468
ENCODING 1128
SWIDTH 600 0
DWIDTH 3 0
BBX 2 5 0 0
BITMAP
40
00
C0
C0
C0
ENDCHAR
STARTCHAR 0469
ENCODING 1129
SWIDTH 600 0
DWIDTH 3 0
BBX 2 4 0 0
BITMAP
40
00
C0
C0
ENDCHAR
STARTCHAR 046A
ENCODING 1130
SWIDTH 600 0
DWIDTH 3 0
BBX 2 5 0 0
BITMAP
40
00
C0
C0
C0
ENDCHAR
STARTCHAR 046B
ENCODING 1131
SWIDTH 600 0
DWIDTH 3 0
BBX 2 4 0 0
BITMAP
40
00
C0
C0
ENDCHAR
STARTCHAR 046C
ENCODING 1132
SWIDTH 600 0
DWIDTH 3 0
BBX 2 5 0 0
BITMAP
40
00
C0
C0
C0
ENDCHAR
STARTCHAR 046D
ENCODING 1133
SWIDTH 600 0
DWIDTH 3 0
BBX 2 5 0 -1
BITMAP
40
00
C0
C0
80
ENDCHAR
STARTCHAR 046E
ENCODING 1134
SWIDTH 600 0
DWIDTH 3 0
BBX 2 5 0 0
BITMAP
40
00
80
40
80
ENDCHAR
STARTCHAR 046F
ENCODING 1135
SWIDTH 600 0
DWIDTH 3 0
BBX 2 4 0 0
BITMAP
40
00
C0
80
ENDCHAR
STARTCHAR 0470
ENCODING 1136
SWIDTH 800 0
DWIDTH 4 0
BBX 3 5 0 0
BITMAP
40
00
E0
E0
E0
ENDCHAR
STARTCHAR 0471
ENCODING 1137
SWIDTH 800 0
DWIDTH 4 0
BBX 3 4 0 0
BITMAP
40
00
E0
E0
ENDCHAR
STARTCHAR 0472
ENCODING 1138
SWIDTH 600 0
DWIDTH 3 0
BBX 2 5 0 0
BITMAP
40
00
40
C0
C0
ENDCHAR
STARTCHAR 0473
ENCODING 1139
SWIDTH 600 0
DWIDTH 3 0
BBX 2 4 0 0
BITMAP
40
00
C0
C0
ENDCHAR
STARTCHAR 2014
ENCODING 8212
SWIDTH 800 0
DWIDTH 4 0
BBX 3 1 0 1
BITMAP
E0
ENDCHAR
STARTCHAR 2018
ENCODING 8216
SWIDTH 400 0
DWIDTH 2 0
BBX 1 2 0 2
BITMAP
80
80
ENDCHAR
STARTCHAR 2019
ENCODING 8217
SWIDTH 400 0
DWIDTH 2 0
BBX 1 2 0 2
BITMAP
80
80
ENDCHAR
STARTCHAR 201B
ENCODING 8219
SWIDTH 400 0
DWIDTH 2 0
BBX 1 2 0 2
BITMAP
80
80
ENDCHAR
STARTCHAR 201C
ENCODING 8220
SWIDTH 600 0
DWIDTH 3 0
BBX 2 2 0 2
BITMAP
C0
C0
ENDCHAR
STARTCHAR 201D
ENCODING 8221
SWIDTH 600 0
DWIDTH 3 0
BBX 2 2 0 2
BITMAP
C0
C0
ENDCHAR
STARTCHAR 2020
ENCODING 8224
SWIDTH 400 0
DWIDTH 2 0
BBX 3 4 -1 0
BITMAP
40
E0
40
40
ENDCHAR
STARTCHAR 2022
ENCODING 8226
SWIDTH 400 0
DWIDTH 2 0
BBX 1 2 0 1
BITMAP
80
80
ENDCHAR
STARTCHAR 2026
ENCODING 8230
SWIDTH 800 0
DWIDTH 4 0
BBX 3 1 0 0
BITMAP
E0
ENDCHAR
STARTCHAR 20AC
ENCODING 8364
SWIDTH 600 0
DWIDTH 3 0
BBX 2 4 0 0
BITMAP
40
40
C0
40
ENDCHAR
STARTCHAR 2122
ENCODING 8482
SWIDTH 800 0
DWIDTH 4 0
BBX 3 2 0 1
BITMAP
E0
A0
ENDCHAR
ENDFONT
